<svg width="44" height="44" viewBox="0 0 44 44" fill="none" xmlns="http://www.w3.org/2000/svg">
<path fill-rule="evenodd" clip-rule="evenodd" d="M41.9524 9.88687C44.103 7.74532 44.1104 4.26584 41.9688 2.11523C39.8273 -0.0353759 36.3478 -0.0427163 34.1972 2.09884L21.7942 14.4496L9.85428 2.45919C7.71274 0.308578 4.23326 0.301229 2.08264 2.44277C-0.0679686 4.58432 -0.0753177 8.0638 2.06623 10.2144L14.0061 22.2049L2.04752 34.1131C-0.103083 36.2547 -0.110424 39.7341 2.03113 41.8848C4.17268 44.0354 7.65216 44.0427 9.80277 41.9012L21.7614 29.9929L34.0804 42.3641C36.222 44.5147 39.7014 44.5221 41.8521 42.3805C44.0027 40.239 44.01 36.7595 41.8685 34.6089L29.5494 22.2377L41.9524 9.88687Z" fill="white"/>
</svg>
