<svg width="222" height="222" viewBox="0 0 222 222" fill="none" xmlns="http://www.w3.org/2000/svg">
<g clip-path="url(#clip0_1_15761)">
<path d="M86.3344 159.884C87.3983 159.884 88.4622 159.607 89.4187 159.062L163.416 116.337C165.32 115.238 166.5 113.199 166.5 111C166.5 108.801 165.32 106.762 163.416 105.663L89.4187 62.9381C87.5145 61.8385 85.1543 61.8385 83.2501 62.9381C81.3459 64.0378 80.1658 66.0761 80.1658 68.2754V153.716C80.1658 155.924 81.3459 157.953 83.2501 159.053C84.2067 159.607 85.2706 159.875 86.3344 159.875V159.884Z" fill="#CE2C16"/>
<path d="M111 0C49.7962 0 0 49.7962 0 111C0 114.406 2.76248 117.169 6.16865 117.169H30.8343C34.2405 117.169 37.003 114.406 37.003 111C37.003 70.1975 70.1975 37.003 111 37.003C151.803 37.003 184.997 70.1975 184.997 111C184.997 151.803 151.803 184.997 111 184.997C91.2335 184.997 72.656 177.3 58.6737 163.326L47.6148 152.267L59.8538 140.028C61.615 138.267 62.1425 135.612 61.1948 133.305C60.2382 130.999 57.9943 129.497 55.5 129.497H6.16865C2.76248 129.497 0 132.259 0 135.666V184.997C0 187.491 1.50193 189.744 3.80847 190.692C6.12395 191.648 8.77022 191.121 10.5314 189.351L21.4562 178.426L32.5151 189.485C53.4795 210.449 81.3458 222 111 222C172.204 222 222 172.204 222 111C222 49.7962 172.204 0 111 0Z" fill="#CE2C16"/>
<path d="M92.6638 79.2538L148.155 111.295L92.6638 143.327V79.2538Z" fill="white"/>
<path d="M110.222 208.769C83.8669 208.769 59.094 198.506 40.4539 179.874L25.0412 164.462C23.8343 163.255 22.2608 162.656 20.6784 162.656C19.0961 162.656 17.5226 163.255 16.3157 164.462L11.5596 169.227V140.949H39.837L33.7578 147.029C31.344 149.442 31.344 153.34 33.7578 155.745L49.1705 171.158C65.4772 187.465 87.1479 196.449 110.213 196.449C157.81 196.449 196.548 157.721 196.548 110.115C196.548 62.509 157.828 23.7717 110.222 23.7717C62.6163 23.7717 27.2852 59.2012 24.1025 103.937H11.7384C14.9389 52.3889 57.887 11.4344 110.222 11.4344C162.557 11.4344 208.885 55.6967 208.885 110.097C208.885 164.497 164.623 208.76 110.222 208.76V208.769Z" fill="white"/>
</g>
<defs>
<clipPath id="clip0_1_15761">
<rect width="222" height="222" fill="white"/>
</clipPath>
</defs>
</svg>
